<svg xmlns="http://www.w3.org/2000/svg" width="390.368" height="299.779" viewBox="0 0 390.368 299.779">
  <g id="Group_100" data-name="Group 100" transform="translate(45.26 1.012)">
    <path id="Path_1584" data-name="Path 1584" d="M2791.51,3153.265c-107.8,0-195.184,87.387-195.184,195.184h390.368C2986.694,3240.652,2899.307,3153.265,2791.51,3153.265Z" transform="translate(-2641.586 -3077.282)" fill="#f3f2f1"/>
    <path id="Path_1585" data-name="Path 1585" d="M2913.23,3236.041c8.355,30.641,16.545,69.868-5.8,69.7-13.013-.1-25.392-26.416-33.749-57.057s-10.648-46.519,6.985-52.248C2900.269,3190.07,2904.873,3205.4,2913.23,3236.041Z" transform="translate(-2755.469 -3110.257)" fill="#3fb0df"/>
    <path id="Path_1586" data-name="Path 1586" d="M2760.716,3117.228c-4.753,9.622-10.1,39.057,8.614,58.02s46.93,14.151,57.029,9.906,20.668-15.606,15.3-27.737c-4.01-9.056-19.753-10.755-30.148,1.132-5.382,6.154-10.99,20.378-6.535,35.662s18.416,29.435,43.069,33.963" transform="translate(-2729.23 -3091.897)" fill="none" stroke="#432787" stroke-linecap="round" stroke-linejoin="round" stroke-width="3.543"/>
    <g id="Group_98" data-name="Group 98" transform="translate(90.463 131.024)">
      <path id="Path_1587" data-name="Path 1587" d="M2901.383,3320.069l-30.443,8.4-19.708-64.886,28.791-7.939a1.734,1.734,0,0,1,2.131,1.119Z" transform="translate(-2842.128 -3255.573)" fill="#fe8668"/>
      <path id="Path_1588" data-name="Path 1588" d="M2858.249,3333.661l9.879-2.725-19.708-64.886-6.757,1.864a3.078,3.078,0,0,0-2.218,3.834Z" transform="translate(-2839.315 -3258.046)" fill="#fd6139"/>
    </g>
    <path id="Path_1589" data-name="Path 1589" d="M2959.583,3316.066l-28.819-2.448a2.671,2.671,0,0,1-2.505-2.854l5.875-62.793a2.726,2.726,0,0,1,2.995-2.387l28.819,2.448a2.67,2.67,0,0,1,2.505,2.854l-5.874,62.793A2.726,2.726,0,0,1,2959.583,3316.066Z" transform="translate(-2769.843 -3122.19)" fill="#0e63b2"/>
    <path id="Path_1590" data-name="Path 1590" d="M2927.893,3294.983l-15.818-.882c.09-1.467,2.243-36.125,5.461-52.986,3.477-18.224,7.917-27.078,16.966-33.836,9.761-7.291,24.424-6.358,34.128-5.742,4.575.293,10.453-3.9,11.913-10.605,1.491-6.844-3.039-15.855-6.813-19.051l10.527-11.286c6.687,5.665,14.769,19.773,11.8,33.4-2.94,13.5-15.449,23.423-28.482,22.6-6.85-.436-18.312-1.164-23.3,2.56s-8.081,8.56-11.152,24.654C2930.079,3259.784,2927.915,3294.633,2927.893,3294.983Z" transform="translate(-2766.025 -3102.133)" fill="#ffd800"/>
    <path id="Path_1591" data-name="Path 1591" d="M2915.162,3291.313c4.374,21.848,8.763,36.935-12.92,39.2-12.627,1.318-19.448-2.274-26.138-29.152-5.941-23.868.209-30.62,12.5-33.665S2910.261,3266.832,2915.162,3291.313Z" transform="translate(-2756.996 -3127.159)" fill="#292f44"/>
    <path id="Path_1592" data-name="Path 1592" d="M2896.067,3303.475l-19.982,4.251q.258,1.138.554,2.331a123.135,123.135,0,0,0,3.831,12.831l19.19-4.083Z" transform="translate(-2757.531 -3135.856)" fill="#fff"/>
    <path id="Path_1593" data-name="Path 1593" d="M2887.177,3333.293l18.462-27.869a3.32,3.32,0,0,1,4.132-1.128l44.046,20.232a3.01,3.01,0,0,1,1.431,4.247l-5.3,9.235Z" transform="translate(-2760.149 -3135.977)" fill="#b2d7e0"/>
    <path id="Path_1594" data-name="Path 1594" d="M2979.841,3302.883c-.594-5.284-9.108-17.973-1.386-32.406,5.479-10.242,17.03-10,21.386-8.491s3.416,6.462-.743,4.953-7.376-9.906-4.6-18.019,11.683-11.321,16.831-10.755,6.931,2.642,5.941,5.095-11.04,1.6-11.931-5.755,5.05-12.029,9.951-13.161,10.842-.566,13.07,1.981,1.347,6-2.228,6.085c-5.644.142-12.921-5.377-11.584-13.585s8.762-11.321,13.515-11.745,10.1.566,13.217,3.254,1.04,6.085-3.119,6.085-14.406-6.368-15.742-13.16,2.673-13.868,10.99-15.142,16.931,1.415,19.307,4.812.446,4.953-2.821,5.519-12.625-2.547-16.634-7.5-3.416-14.293,6.386-15" transform="translate(-2780.933 -3105.756)" fill="none" stroke="#006535" stroke-linecap="round" stroke-linejoin="round" stroke-width="2.025"/>
    <path id="Path_1595" data-name="Path 1595" d="M2958.086,3341.77l-32-14.186a1.518,1.518,0,0,1-.788-2.057l28.861-59.124a1.66,1.66,0,0,1,2.158-.751l32,14.185a1.518,1.518,0,0,1,.788,2.057l-28.861,59.124A1.661,1.661,0,0,1,2958.086,3341.77Z" transform="translate(-2769.11 -3126.895)" fill="#f84d36"/>
    <g id="Group_99" data-name="Group 99" transform="translate(55.597 139.467)">
      <path id="Path_1596" data-name="Path 1596" d="M2986.342,3269.9l-4.478-3.274-44.6,55.4h-94.806l-44.3-55.018-4.478,3.273,41.664,51.745h-.43v103.3h109.6v-103.3h-.14Z" transform="translate(-2793.678 -3266.625)" fill="#fca349" stroke="#e88624" stroke-miterlimit="10" stroke-width="1.2"/>
    </g>
    <ellipse id="Ellipse_25" data-name="Ellipse 25" cx="8.911" cy="8.491" rx="8.911" ry="8.491" transform="translate(282.026 108.682)" fill="none" stroke="#f9cf5f" stroke-linecap="round" stroke-linejoin="round" stroke-width="2.025"/>
    <ellipse id="Ellipse_26" data-name="Ellipse 26" cx="6.015" cy="5.731" rx="6.015" ry="5.731" transform="translate(94.454)" fill="none" stroke="#fe8465" stroke-linecap="round" stroke-linejoin="round" stroke-width="2.025"/>
    <ellipse id="Ellipse_27" data-name="Ellipse 27" cx="7.574" cy="7.217" rx="7.574" ry="7.217" transform="translate(0 105.71)" fill="none" stroke="#f6b60d" stroke-linecap="round" stroke-linejoin="round" stroke-width="2.025"/>
    <line id="Line_245" data-name="Line 245" x2="16.628" y2="20.275" transform="translate(39.653 104.861)" fill="none" stroke="#432787" stroke-linecap="round" stroke-linejoin="round" stroke-width="2.025"/>
    <line id="Line_246" data-name="Line 246" x2="8.02" y2="11.887" transform="translate(61.039 47.124)" fill="none" stroke="#94c7d4" stroke-linecap="round" stroke-linejoin="round" stroke-width="2.025"/>
    <line id="Line_247" data-name="Line 247" x2="2.673" y2="14.434" transform="translate(107.82 30.567)" fill="none" stroke="#fe8668" stroke-linecap="round" stroke-linejoin="round" stroke-width="2.025"/>
    <line id="Line_248" data-name="Line 248" x1="4.901" y2="22.925" transform="translate(192.027 64.105)" fill="none" stroke="#f6b60d" stroke-linecap="round" stroke-linejoin="round" stroke-width="2.025"/>
    <line id="Line_249" data-name="Line 249" x1="9.356" y2="17.406" transform="translate(246.383 35.661)" fill="none" stroke="#fe8465" stroke-linecap="round" stroke-linejoin="round" stroke-width="2.025"/>
    <path id="Path_1597" data-name="Path 1597" d="M2963.152,3326.282l-11.9-5.492,4.6-9.042,11.9,5.492Z" transform="translate(-2775.273 -3137.808)" fill="#fff"/>
    <path id="Path_1598" data-name="Path 1598" d="M2976.505,3306.188l-18.88-8.717,9.149-17.99,18.88,8.717Z" transform="translate(-2776.776 -3130.192)" fill="#fff"/>
    <path id="Path_1599" data-name="Path 1599" d="M2966.1,3300.561l-4.366-2.016,5.778-11.362,4.366,2.016Z" transform="translate(-2777.745 -3132.01)" fill="#3fb0df"/>
    <path id="Path_1600" data-name="Path 1600" d="M2973.062,3304.768l-4.365-2.016,4.147-8.155,4.366,2.016Z" transform="translate(-2779.39 -3133.76)" fill="#fe8668"/>
    <path id="Path_1601" data-name="Path 1601" d="M2980.028,3309.032l-4.365-2.016,2.423-4.765,4.365,2.016Z" transform="translate(-2781.034 -3135.567)" fill="#f6b60d"/>
  </g>
</svg>
