<?xml version="1.0" encoding="UTF-8"?>
<svg id="girl_with_a_pencil" data-name="girl with a pencil" xmlns="http://www.w3.org/2000/svg" viewBox="0 0 972.53 738.52">
  <defs>
    <style>
      .cls-1 {
        fill: #333;
      }

      .cls-1, .cls-2, .cls-3, .cls-4, .cls-5, .cls-6, .cls-7, .cls-8, .cls-9, .cls-10, .cls-11, .cls-12, .cls-13, .cls-14, .cls-15, .cls-16, .cls-17, .cls-18, .cls-19, .cls-20, .cls-21, .cls-22, .cls-23, .cls-24, .cls-25, .cls-26, .cls-27, .cls-28, .cls-29, .cls-30, .cls-31, .cls-32, .cls-33, .cls-34 {
        stroke-width: 0px;
      }

      .cls-2 {
        fill: #c8d6e5;
      }

      .cls-3 {
        fill: #f5735d;
      }

      .cls-4 {
        fill: #085d77;
      }

      .cls-5 {
        fill: #d8d8d8;
      }

      .cls-6 {
        fill: #481f52;
      }

      .cls-7 {
        fill: #ac392c;
      }

      .cls-8 {
        fill: #e0e0e0;
      }

      .cls-9 {
        fill: #8b1715;
      }

      .cls-10 {
        fill: #93a3af;
      }

      .cls-11 {
        fill: #ffb002;
      }

      .cls-12 {
        fill: #371443;
      }

      .cls-13 {
        fill: #d30076;
      }

      .cls-14 {
        fill: #f19500;
      }

      .cls-15 {
        fill: #ffb000;
      }

      .cls-16 {
        fill: #d57300;
      }

      .cls-17 {
        fill: #7b8992;
      }

      .cls-18 {
        fill: #1279a9;
      }

      .cls-19 {
        fill: #479bdb;
      }

      .cls-20 {
        fill: #2f8ac2;
      }

      .cls-21 {
        fill: #e8e8e8;
      }

      .cls-22 {
        fill: #562f5e;
      }

      .cls-23 {
        fill: #0076ac;
      }

      .cls-24 {
        fill: #b3116b;
      }

      .cls-25 {
        fill: #ca2276;
      }

      .cls-26 {
        fill: #d77300;
      }

      .cls-27 {
        fill: #ef9500;
      }

      .cls-28 {
        fill: #c6c6c6;
      }

      .cls-29 {
        fill: #fff;
      }

      .cls-30 {
        fill: #bb006b;
      }

      .cls-31 {
        fill: #80034f;
      }

      .cls-32 {
        fill: #f1f1f1;
      }

      .cls-33 {
        fill: #e85653;
      }

      .cls-34 {
        fill: #d8e8ef;
      }
    </style>
  </defs>
  <path class="cls-34" d="M340.28,442.6c-420.5,106.02-486.73,119.47,2.73,249.86,275.59,73.41,219.38,56.91,597.08-34.15,130.48-31.46-145.34-330.29-599.81-215.71h0Z"/>
  <g>
    <path class="cls-8" d="M103.52,559.9s10.56-15.13,12.33-36.83l34.56-7.94-34.73-5.98c-1.89-17.51-10.54-37.59-33.48-56.91l757.8,3.2,56.49,29.84,26.65,70.34-25.58,54.36-47.96,18.12-308.02,51.16-438.06-119.36h0Z"/>
    <path class="cls-32" d="M238.88,578.02l308.02,53.29-39.44-20.25s34.41,3.74,44.28,2.83c-.27-6.12-3.94-24.05-5.57-30.66l-192.27-49.09,185.77,30.51c-7.96-12.98-22.23-32.24-38.06-45.78-43.33-37.07,17.08-55.44,96.35-64.44l242.05,1.02,56.49,29.84,26.65,70.34-25.58,54.36-47.96,18.12-304.37,50.55h-5.91l-7.8-2.13c2.64-3.46,9.98-17.62,14.64-28.27l-307.29-70.24h0Z"/>
    <polygon class="cls-8" points="446.05 642.32 452.25 521.75 416.49 516.2 404.01 631.5 446.05 642.32"/>
    <path class="cls-28" d="M870.91,599.33s34.11-88.46-44.76-123.64l10.66-11.72,46.11,26.15,22.1,70.84-20.25,46.9-13.86-8.53h0Z"/>
    <path class="cls-4" d="M880.02,600.63s43.12-89.76-45.35-131.33l22.38-13.86,46.9,34.11,19.18,66.08-14.92,55.42-28.19-10.42Z"/>
    <path class="cls-20" d="M92.86,572.69l448.71,118.31,314.42-46.9s13.86-21.32,21.32-17.05,77.81-3.2,47.96-103.39c-29.84-100.19-91.66-89.53-91.66-89.53l-380.5-54.36s-380.5,44.76-383.7,54.36c-3.2,9.59-2.66,19.72,7.99,20.78,10.66,1.07,410.34,75.67,422.07,73.54,11.72-2.13,298.43-61.82,298.43-61.82,0,0,24.51,24.51,31.97,12.79,7.46-11.72,38.37-33.04,76.74,46.9,0,0,24.51,85.27-31.97,70.34,0,0-17.05-19.18-27.71,19.18l-309.09,50.09-434.86-111.9s-19.18-1.06-10.12,18.66Z"/>
    <polygon class="cls-8" points="116.81 522.85 149.28 515.39 266.59 537.51 116.81 522.85"/>
    <path class="cls-11" d="M704.31,585.44s16.7,13.45,21.68,43.32l22.4-22.4,26.14,9.96s-2.49-28.63-18.67-42.32l-51.55,11.44h0Z"/>
    <path class="cls-27" d="M774.53,617.56c-.15,0-.3-.03-.44-.08l-26.14-9.96c-.64-.24-.96-.96-.72-1.61.24-.64.96-.97,1.61-.72l26.14,9.96c.64.24.96.96.72,1.61-.19.49-.67.8-1.17.8Z"/>
    <path class="cls-27" d="M725.99,630c-.6,0-1.13-.43-1.23-1.04-4.85-29.07-21.07-42.43-21.24-42.56-.54-.43-.62-1.22-.19-1.75s1.21-.62,1.75-.19c.7.56,17.13,14.09,22.13,44.09.11.68-.35,1.32-1.02,1.43-.07.02-.13.02-.2.02h0Z"/>
    <path class="cls-19" d="M69.41,434.13c3.2-9.59,383.7-54.36,383.7-54.36l380.5,54.36s.55-.09,1.56-.18c-5.84,1.89-11.61,5.81-16.49,12.97,0,0-310.16,63.95-322.95,61.82-11.42-1.9-353.11-61.54-426.42-74.34.05-.09.07-.18.1-.27h0Z"/>
    <path class="cls-28" d="M543.64,574.06c.08,0,.16-.01.23-.03l320.88-71.71c.57-.13.94-.7.81-1.27s-.7-.93-1.27-.81l-320.65,71.66-436.94-91.83c-.58-.12-1.14.25-1.26.82-.12.58.25,1.14.82,1.26l437.17,91.88c.07.02.14.03.21.03h0Z"/>
    <path class="cls-28" d="M253.8,535.38c.5,0,.95-.36,1.05-.87.11-.58-.28-1.13-.86-1.24l-139.72-25.7c-.58-.11-1.13.28-1.24.86-.11.58.28,1.13.86,1.24l139.72,25.7c.06.01.12.01.19.01Z"/>
    <path class="cls-28" d="M548.32,643.7c.06,0,.11,0,.17-.01l110.49-17.72c.58-.09.98-.64.88-1.22-.09-.58-.64-.98-1.22-.88l-110.3,17.69-274.08-57.12c-.58-.13-1.14.25-1.26.83s.25,1.14.83,1.26l274.28,57.16h.21Z"/>
    <path class="cls-28" d="M553.59,619.12c.08,0,.15-.01.23-.02l326.91-70.95c.58-.12.94-.69.82-1.27s-.7-.94-1.27-.82l-326.69,70.9c-2.71-.56-18.43-3.78-20.54-3.78-.59,0-1.07.48-1.07,1.07s.48,1.07,1.07,1.07c1.48,0,12.97,2.26,20.33,3.78.07.01.14.02.21.02h0Z"/>
    <path class="cls-28" d="M798.44,586.54c.06,0,.12-.01.18-.01l82.07-13.86c.58-.1.97-.65.87-1.23-.1-.58-.64-.97-1.23-.87l-82.07,13.86c-.58.1-.97.65-.87,1.23.08.51.53.88,1.05.88Z"/>
    <path class="cls-28" d="M656.68,516.2c.06,0,.12,0,.17-.01l187.31-30.95c.58-.1.97-.64.88-1.23-.1-.58-.64-.99-1.23-.88l-187.31,30.95c-.58.1-.97.64-.88,1.22.1.53.55.9,1.06.9Z"/>
  </g>
  <g>
    <path class="cls-32" d="M901.97,387.47s-9.21-13.19-10.75-32.1l-30.13-6.92,30.27-5.21c1.65-15.26,9.19-32.76,29.18-49.6l-660.53,2.79-49.24,26.01-23.23,61.32,22.3,47.38,41.81,15.79,268.49,44.59,381.83-104.05h0Z"/>
    <path class="cls-21" d="M783.99,403.26l-268.49,46.45,34.37-17.65s-31.03-.71-39.63-1.5c.23-5.33.99-10.9,2.42-16.67l171.07-48.88-159.39,21.51c6.94-11.31,16.84-23.02,30.64-34.82,37.77-32.31-14.89-48.32-83.99-56.17l-210.98.89-49.24,26.01-23.23,61.32,22.3,47.38,41.81,15.79,265.29,44.06h5.15l6.8-1.85c-2.3-3.02-6.9-9.62-10.96-18.9l266.06-66.97Z"/>
    <path class="cls-28" d="M233.08,421.84s-29.73-77.11,39.02-107.77l-9.29-10.22-40.19,22.79-19.27,61.75,17.65,40.88,12.08-7.43h0Z"/>
    <path class="cls-16" d="M225.14,422.98s-37.58-78.24,39.53-114.47l-19.51-12.08-40.88,29.73-16.72,57.6,13.01,48.31,24.57-9.09Z"/>
    <path class="cls-27" d="M911.26,398.62l-391.11,103.12-274.07-40.88s-12.08-18.58-18.58-14.86c-6.5,3.72-67.82-2.79-41.81-90.11,26.01-87.33,79.9-78.04,79.9-78.04l331.66-47.38s331.66,39.02,334.45,47.38c2.79,8.36,2.32,17.19-6.97,18.12-9.29.93-357.67,65.96-367.89,64.1s-260.13-53.88-260.13-53.88c0,0-21.37,21.37-27.87,11.15s-33.44-28.8-66.89,40.88c0,0-21.37,74.32,27.87,61.32,0,0,14.86-16.72,24.15,16.72l269.42,43.66,379.04-97.55s16.73-.94,8.83,16.25h0Z"/>
    <polygon class="cls-32" points="890.39 355.18 862.09 348.68 759.83 367.96 890.39 355.18"/>
    <path class="cls-11" d="M931.7,277.85c-2.79-8.36-334.45-47.38-334.45-47.38l-331.66,47.38s-.48-.08-1.36-.16c5.09,1.65,10.12,5.06,14.37,11.31,0,0,270.35,55.74,281.49,53.88,9.95-1.66,307.79-53.64,371.68-64.79-.02-.09-.04-.17-.07-.24Z"/>
    <path class="cls-28" d="M518.34,399.81c-.07,0-.14-.01-.2-.02l-279.69-62.51c-.5-.11-.82-.61-.7-1.11.11-.5.61-.81,1.11-.7l279.49,62.46,380.86-80.05c.51-.11.99.22,1.1.72s-.22,1-.72,1.1l-381.06,80.09c-.06.02-.12.02-.19.02h0Z"/>
    <path class="cls-28" d="M770.98,366.1c-.44,0-.83-.31-.91-.76-.09-.5.24-.99.75-1.08l121.78-22.4c.51-.1.99.24,1.08.75.09.5-.24.99-.75,1.08l-121.78,22.4c-.06.01-.11.01-.17.01h0Z"/>
    <path class="cls-28" d="M514.26,460.52s-.1,0-.15-.01l-96.31-15.45c-.51-.08-.85-.56-.77-1.06.08-.51.55-.85,1.06-.77l96.14,15.42,238.9-49.79c.5-.11.99.22,1.1.72.1.5-.22.99-.72,1.1l-239.07,49.82s-.12.02-.18.02h0Z"/>
    <path class="cls-28" d="M509.67,439.09c-.07,0-.13-.01-.2-.02l-284.95-61.84c-.5-.11-.82-.6-.71-1.1.11-.5.61-.82,1.1-.71l284.76,61.8c2.36-.49,16.07-3.29,17.9-3.29.51,0,.93.42.93.93s-.42.93-.93.93c-1.29,0-11.31,1.97-17.72,3.29-.05.01-.12.01-.18.01h0Z"/>
    <path class="cls-28" d="M296.25,410.7s-.1,0-.16-.01l-71.53-12.08c-.51-.09-.85-.57-.76-1.07.08-.51.56-.84,1.07-.76l71.53,12.08c.51.09.85.57.76,1.07-.07.44-.46.77-.91.77Z"/>
    <path class="cls-28" d="M419.81,349.38s-.1,0-.15-.01l-163.27-26.98c-.51-.08-.85-.56-.77-1.07.08-.51.56-.86,1.07-.76l163.27,26.98c.51.08.85.56.77,1.07-.08.45-.47.77-.92.77Z"/>
    <polygon class="cls-29" points="595.4 251.83 794.21 279.7 698.81 294 502.49 262.98 595.4 251.83"/>
  </g>
  <g>
    <g>
      <g>
        <path class="cls-25" d="M606.59,42.29s7.43,7.08,12.41.19c4.97-6.89-4.57-13.43-4.57-13.43,0,0,7.89-4.27,2.3-12.95-5.59-8.68-11.89-2.57-11.89-2.57,0,0,2.57-11.89-13.54-13.38s-14.73,8.27-14.73,8.27c0,0-7.43-7.08-15.03,2.73-7.6,9.81,1.13,13.19,1.13,13.19,0,0-5.27,1.35-4.46,4.51.81,3.16,4.24,3.41,4.24,3.41,0,0-10.52,7.19-2.81,15.33,7.7,8.14,15.87,4.92,15.87,4.92l31.08-10.22h0Z"/>
        <path class="cls-24" d="M575.51,52.51l31.09-10.21s7.43,7.08,12.41.19c4.97-6.89-4.57-13.43-4.57-13.43,0,0,3.53-1.92,4.19-5.79-3.93,4.61-9.52-1.83-9.52-1.83,0,0-1.81,6.08-9.73,5.86s-7.16-6.03-7.16-6.03c-5.24,5.84-8.7,1.11-8.7,1.11,0,0,2.68,6.06-1.27,8.19s-5.03-2.08-5.03-2.08c0,0-2.3,12.95-8.92,9.03s-2.43-9.49-2.43-9.49c-5.51,3.85-6.92.78-7.28-1.22-.39.57-.57,1.26-.37,2.05.81,3.16,4.24,3.41,4.24,3.41,0,0-10.52,7.19-2.81,15.33,7.69,8.12,15.86,4.91,15.86,4.91h0Z"/>
        <polygon class="cls-3" points="577.72 56.11 572.56 88.09 585.1 98.88 593.59 91.93 591.86 67.78 577.72 56.11"/>
        <path class="cls-33" d="M592.75,80.2c-3.61-1.3-16.07-6.78-14.4-19.98l13.53,7.77.87,12.21h0Z"/>
        <path class="cls-3" d="M608.74,38.39s3.73,33.62-12.55,32.86c-16.28-.76-19.04-11.5-19.04-11.5,0,0-7.44,2.1-9.21-3.69-1.77-5.79.26-14.26,10.24-9.72,0,0,11.79-3.16,8.57-11.32,0,0,7.68,3.65,13.97-2.46.01,0,2.27,6.2,8.02,5.83Z"/>
        <path class="cls-31" d="M578.45,47.4c-.58.15-1.17-.2-1.32-.77-.16-.58.19-1.18.77-1.33.06-.02,5.94-1.64,7.78-5.31.7-1.39.72-2.89.06-4.57-.16-.42-.06-.89.27-1.19s.81-.38,1.21-.19c.29.13,7.09,3.23,12.75-2.26.26-.25.62-.36.98-.28.35.07.65.32.78.65.11.25,2.7,6.21,9.05,4.58.58-.15,1.18.2,1.32.78.15.58-.2,1.18-.78,1.32-5.6,1.43-9.26-1.83-10.92-4.54-4.47,3.56-9.39,3.07-12.08,2.39.21,1.5-.02,2.94-.7,4.29-2.29,4.54-8.88,6.35-9.16,6.42,0,0-.01,0-.01,0h0Z"/>
        <path class="cls-29" d="M599,60.27s-5.94.46-14.85-3.93c0,0,4.5,11.08,10.05,9.94,2.82-.58,4.8-6.01,4.8-6.01h0Z"/>
      </g>
      <path class="cls-1" d="M613.13,45.42c-.01-.09-.04-.16-.07-.24-.01-.44-.3-.84-.75-.94-18.3-4.1-36.9-1.94-37.09-1.92-.54.06-.92.55-.86,1.09.06.47.44.82.89.86h.2c.08,0,3.33-.38,8.39-.52-.46,1.92-1.16,5.88.29,8.03.59.87,1.47,1.37,2.56,1.46.42.04.86.09,1.31.14.48.06.97.11,1.46.15,2.01.17,4.13.09,5.91-1.35,1.81-1.45,2.92-4.09,3.4-8,.3.03.6.06.91.08-.14,3.49.46,5.97,1.84,7.52,1.39,1.57,3.27,1.96,5.09,2.11.45.04.89.06,1.33.08.4.02.79.04,1.17.07.98.08,1.85-.23,2.52-.9,1.77-1.75,1.7-5.59,1.5-7.72h0ZM594.16,50.65c-1.59,1.28-3.79,1.02-5.92.78-.99-.11-1.98-.04-2.46-.75-.94-1.39-.46-4.83.12-6.97,3.19-.04,6.92.03,10.94.31-.43,3.3-1.32,5.53-2.68,6.63ZM610.26,51.78c-.51.51-1.35.29-2.2.25-1.9-.1-3.87-.2-5.06-1.54-1-1.13-1.46-3.16-1.36-6.02,3.12.35,6.35.86,9.57,1.55.15,2.15,0,4.8-.95,5.76Z"/>
    </g>
    <path class="cls-3" d="M473.68,255.21c0,1.81-.18,3.51.63,5.17.93,1.92,2.5,3.47,4.18,4.74.53.4,1.1.81,1.39,1.41.63,1.32-.47,2.2-1.66,2.04-1.07-.14-2.1-.65-3.04-1.16-1.79-.96-3.39-2.18-5.53-2.05-1.37.08-2.83.71-4.16,1.05-3.27.85-6.59,1.68-9.95,2.03-1.38.15-2.81.05-4.21.05-.43,0-.87-.01-1.26-.19s-.72-.55-.72-.98.28-.76.37-1.15c.04-.17.05-.36.09-.53.2-.73,1.03-1.07,1.78-1.19-.01-.47.28-.9.65-1.18s.82-.44,1.26-.6c3.49-1.23,7.28-2,9.85-4.88,1.22-1.37,1.91-3.12,2.97-4.61.54-.75,2.6.58,3.27.87,1.31.57,2.66,1.15,4.09,1.16h0Z"/>
    <polygon class="cls-33" points="815.44 268.01 791.24 240.19 797.61 235.01 818.34 263.97 815.44 268.01"/>
    <g>
      <polygon class="cls-3" points="856.59 274.27 819.63 272.86 819.66 264.49 855.28 269.38 856.59 274.27"/>
      <path class="cls-6" d="M858.43,274c-.46,1.89-2.78,2.65-4.22,1.34-1.59-1.45-3.21-4.07-3.59-8.81-.8-9.95.04-26.1,3.55-27.79,1.7-.82,4.1-1.13,6.37-1.21,3.39-.12,5.96,3.03,5.16,6.33l-7.27,30.14h0Z"/>
      <path class="cls-22" d="M860.3,241.86c-.04-3.48-2.52-3.95-4.49-3.72-.59.16-1.15.35-1.64.59-3.46,1.66-4.32,17.37-3.58,27.35,3.07,12.36,9.77-18.74,9.71-24.22Z"/>
    </g>
    <g>
      <path class="cls-18" d="M626.47,268.95l42.01-2.63s69.84-69.13,74.82-69.57c4.98-.44,56.44,60.38,56.44,60.38,0,0,7.88,1.31,9.19-6.56,0,0-53.79-80.26-61.7-81.39-9.19-1.31-138.61,69.41-138.61,69.41l17.85,30.36Z"/>
      <path class="cls-20" d="M546.4,232.2l289.35,32.68s1.29,4.44-.7,10.64l-268.33,1.24c-6.2.03-11.57-4.28-12.89-10.34l-7.43-34.22Z"/>
      <path class="cls-18" d="M556.61,233.35l75.1,8.48c-2.79,1.04-5.94,2.16-9.51,3.35-97.47,32.68,181.48,27.71,197.23,26.39,12.94-1.08,11.18-5.76,10.14-7.4l6.18.7s1.29,4.44-.7,10.64l-268.33,1.24c-6.2.03-11.57-4.28-12.89-10.34l-6.96-32.04c3.09-.33,6.35-.67,9.74-1.02h0Z"/>
      <path class="cls-4" d="M637.12,240.08l52.34,5.69c-.83.81-1.64,1.6-2.44,2.38l-50.19-5.45c-.72-.08-1.24-.73-1.16-1.45.08-.73.72-1.25,1.45-1.17h0Z"/>
    </g>
    <path class="cls-22" d="M582.55,78.88s41.04,8.02,47.34,10.48c31.14,12.19,38.02,49.32,56.87,59.58,10.14,5.52,24.37-12.19,35.2-25.73l9.48,6.77c-17.6,44.68-64.99,105.61-96.13,33.85,0,0-5.14,60.11-10.17,73.45,0,0-44.63,14.18-80.68,4.61,0,0-10.41-46.35-14.84-69.88,0,0-10.92,15.75-19.95,24.38-27.6,26.4-34.79,59.99-34.79,59.99,0,0-4.8,2.4-12-1.2,0,0,8.4-57.59,15.6-79.19,7.97-23.93,19.93-88.23,104.07-97.11h0Z"/>
    <path class="cls-3" d="M582.55,78.88c-.08,0-.16.02-.24.03-5.2.56-10.15,1.33-14.86,2.31-4.76,20.79,34.56,39.9,34.56,39.9,10.99-13.07,11-27.85,9.09-36.38-13.32-2.88-28.54-5.86-28.55-5.86h0Z"/>
    <path class="cls-6" d="M550.67,146.36c-12.29,61.26,32.71,84.01,53.45,82.85,18.2-1.02,24.65-17.6,26.74-24.41-1.83,13.13-3.8,27.4-5.71,32.48,0,0-44.63,14.18-80.68,4.61,0,0-10.2-45.42-14.7-69.16,10.65-9.97,20.9-26.37,20.9-26.37Z"/>
    <path class="cls-11" d="M608.24,84.21c1.48,7.78,2.38,22.09-7.04,33.48,0,0-27.95-14.41-33.26-36.58-2.33.48-4.61,1-6.83,1.57,1.65,5.69,11.84,36.37,41.52,44.07,0,0,16.07-21.38,10-41.69-1.42-.31-2.86-.62-4.31-.93-.03.04-.06.05-.08.08Z"/>
    <path class="cls-12" d="M529.62,172.04c6.46-7,16.05-18.16,21.2-27.79.28-.53.94-.74,1.48-.45.53.29.74.95.45,1.48-5.63,10.54-16.12,22.36-22.66,29.23-.16-.84-.32-1.67-.47-2.47h0Z"/>
    <path class="cls-6" d="M721.96,123.21c-10.83,13.54-25.06,31.25-35.2,25.73-18.84-10.26-25.73-47.39-56.87-59.58-.71-.28-1.88-.63-3.36-1.03,16.08,9.8,11.04,63.21,9.45,77,31.15,69.37,77.98,9.02,95.46-35.35l-9.48-6.77h0Z"/>
    <path class="cls-12" d="M637.58,107.82c-.14-.69-.74-1.1-1.32-.92-.59.18-.95.9-.81,1.59.04.21,3.7,18.9-.06,55.54.37.84.73,1.65,1.1,2.45.06.12.11.26.17.38.01,0,.02.03.03.07.17.35.33.69.5,1.04,4.88-35.28.57-59.29.39-60.15h0Z"/>
    <g>
      <g>
        <polygon class="cls-5" points="728.17 48.97 724.87 73.71 736.42 68.76 728.17 48.97"/>
        <polygon class="cls-32" points="685.29 141.34 678.69 138.04 688.59 81.96 733.12 68.76 728.17 48.97 737.78 48.93 743.02 67.11 724.87 121.55 685.29 141.34"/>
        <polygon class="cls-5" points="696.83 86.91 688.55 82.17 678.69 138.04 685.29 141.34 688.86 139.55 696.83 86.91"/>
        <polygon class="cls-11" points="695.45 86.75 735.56 72.74 741.37 67.11 736.94 47.27 738.8 47.14 744.67 67.11 731.77 125.31 724.59 129.55 684.48 143.55 695.45 86.75"/>
        <polygon class="cls-27" points="698.48 131.44 698.48 133.09 718.28 128.14 718.07 125.26 698.48 131.44"/>
        <path class="cls-27" d="M725.02,129.95c-.06,0-.11-.01-.17-.02-.45-.1-.73-.53-.64-.98l11.41-53.77c.03-.16.11-.3.22-.41l7.85-7.85c.32-.32.84-.32,1.17,0,.32.32.32.84,0,1.17l-7.68,7.68-11.35,53.53c-.09.39-.43.65-.81.65h0Z"/>
      </g>
      <path class="cls-33" d="M735.36,120.3c.26-.61.52-1.24.67-1.89.25-1.03.25-2.1.29-3.15.03-.71.07-1.43.13-2.14.15-1.88.37-3.75.5-5.62.07-.94.11-1.87.11-2.81,0-.47-.01-.94-.03-1.41-.02-.33-.02-.77-.27-1.03-.05-.05-.11-.09-.17-.11-.21-.08-.45-.03-.64.09-.22.15-.39.41-.46.67l-1.75,7.92c.02-.11-.03-.29-.05-.4-.03-.17-.06-.35-.1-.52-.07-.34-.14-.67-.22-1.01-.16-.68-.35-1.35-.54-2.02-.17-.6-.36-1.22-.79-1.68-.16-.17-.36-.32-.59-.3-.17.01-.32.11-.42.25-.24.31-.27.71-.29,1.08-.02.43-.01.85.02,1.28.02.21.04.41.06.62.03.26.04.51.08.78.05.32.11.63.17.95.21,1.16.5,2.29.66,3.46.06.41.08.82.04,1.24-.01.06-.02.14-.08.16-.03.01-.07.01-.1,0-.13-.04-.24-.14-.34-.23-.67-.62-1.35-1.24-2.02-1.86-.36-.33-.74-.68-1.21-.86-.38-.15-.95-.31-1.3-.01-.92.78.42,2.38.91,3.03,1.02,1.36,2.06,2.71,3.11,4.06.12.16.99,1.31.45,1.31-.17,0-.4-.12-.57-.17-.21-.06-.42-.11-.62-.16-.39-.09-.78-.17-1.17-.24-.48-.08-.95-.11-1.44-.16-.33-.03-.68-.03-.97.13-.09.05-.18.11-.22.21-.03.07-.04.15-.03.23.02.29.15.56.31.8.38.52.98.78,1.53,1.11.6.36,1.2.73,1.79,1.11.34.22.75.49.9.89.05.13.03.28.01.41-.05.33-.22,1.16-.37,1.86l-2.31,1.36,2.49,1.8c.68-1.22,1.51-2.38,2.19-3.6.97-1.77,1.86-3.58,2.65-5.43h0Z"/>
    </g>
  </g>
  <g>
    <g>
      <path class="cls-22" d="M285.91,351.29s-2.15,2.3.96,6.64,16.44,21.14,23.47,14.78c9.35-8.47-6.42-17.83-17.03-21.66-7.5-2.72-7.4.24-7.4.24h0Z"/>
      <path class="cls-6" d="M298.2,353.06c4.28,3.04,11.87,8.79,5.2,11.72-7.3,3.21-16.68-11.3-16.68-11.3l-1.33-1.24c-.36,1.05-.47,2.97,1.48,5.68,3.11,4.34,16.44,21.14,23.47,14.78,7.98-7.22-2.34-15.1-12.14-19.64h0Z"/>
      <g>
        <polygon class="cls-7" points="228.86 448.64 220.59 414.96 213.15 417.05 224.18 448.68 228.86 448.64"/>
        <path class="cls-6" d="M229.76,451.82c1.34-.24,2.05-1.75,1.34-2.91-1.06-1.73-3.39-3.85-8.48-4.56-9.13-1.27-24.06-1.36-25.81,1.79-1.02,1.85-1.42,4.67-1.55,7.1-.13,2.49,2.09,4.45,4.54,4l29.96-5.42Z"/>
        <path class="cls-22" d="M199.38,451.96c-3.2-.22-3.5-2.53-3.19-4.34.18-.54.39-1.04.63-1.48,1.72-3.1,16.24-3.05,25.4-1.84,11.22,3.49-17.8,8-22.84,7.66h0Z"/>
      </g>
      <path class="cls-7" d="M289.99,351.07l-22.2-21.82-5.23,5.69,24.25,19.69c.98.8,2.42.69,3.27-.25h0c.87-.95.83-2.41-.09-3.31h0Z"/>
      <path class="cls-19" d="M179.4,256.98l119.96-33.53,29.18,1.8s-4.41,28.16-5,32.2c-2.71,18.39-40.84,35.49-75,48.57,16.25,17.16,37.65,38.65,37.65,38.65l-5.75,6.62s-25.01-18.46-50.66-38.22c-11.99,4.47-20.29,7.61-20.7,8.82-1.57,4.6,18.34,113.93,18.34,113.93l-8.47,2.24s-42.49-122.96-39.36-129.48c.95-1.97,10.36-8.58,23.04-16.85-15.7-12.65-27.51-22.97-27.54-25.38-.06-5.37,4.31-9.37,4.31-9.37h0Z"/>
      <path class="cls-20" d="M248.89,305.89l-7.36-7.39s41.5-13.91,46.47-31.51c4.97-17.61-24.61-12.61-33.21-7.75s-31.81,20.1-31.81,20.1c0,0-21.47-24.54-35.44-16.76-9.57,5.33.52,16.66,7.83,23.27-11.95-9.86-20.28-17.45-20.29-19.48-.05-5.38,4.32-9.39,4.32-9.39l119.96-33.53,29.18,1.8s-4.23,28.19-5,32.2c-3.93,20.3-40.54,35.36-74.65,48.44h0Z"/>
      <path class="cls-20" d="M226.13,436.17c-5.16-18.8-23.03-110.65-23.83-115.79-.52-3.35,12.93-7.82,8.6-17.39-1.47-3.24-3.46-6.22-5.34-9.25,4.81,4.04,22.76,18.41,24.01,19.42-11.88,4.43-20.1,7.55-20.51,8.74-1.57,4.6,18.34,113.93,18.34,113.93l-1.27.34h0Z"/>
      <path class="cls-18" d="M223.74,278.62c-.35-.38-8.9-9.6-16.27-13.81-.5-.29-1.14-.11-1.43.39-.29.5-.11,1.14.39,1.43,7.08,4.05,15.69,13.33,15.77,13.42l62.6,66.17c.46-.53.94-1.04,1.41-1.56l-62.47-66.04h0Z"/>
      <path class="cls-18" d="M222.97,279.02c-.2-.18-.39-.36-.58-.54.01-.01.01-.02.02-.02,1.63-1.04,40.04-25.58,47.51-29.42.51-.27,1.15-.06,1.41.45s.06,1.15-.45,1.41c-6.94,3.57-42.32,26.12-46.86,29.02-.35-.3-.7-.59-1.05-.9Z"/>
    </g>
    <g>
      <path class="cls-2" d="M281.54,250.03s-67.16-22.39-70.89-22.39-50.99,18.66-50.99,18.66l73.07,27.14s45.08-15.95,48.81-23.41Z"/>
      <g>
        <polygon class="cls-17" points="270.35 250.01 264.35 252.41 257.16 250.01 263.16 247.61 270.35 250.01"/>
        <polygon class="cls-17" points="259.56 246.41 253.56 248.81 246.37 246.41 252.36 244.01 259.56 246.41"/>
        <polygon class="cls-17" points="237.97 247.61 231.97 250.01 224.78 247.61 230.78 245.21 237.97 247.61"/>
        <polygon class="cls-17" points="227.18 244.01 221.18 246.41 213.99 244.01 219.98 241.61 227.18 244.01"/>
        <polygon class="cls-17" points="216.38 240.41 210.39 242.81 203.19 240.41 209.19 238.01 216.38 240.41"/>
        <polygon class="cls-17" points="248.76 259.6 242.77 262 235.57 259.6 241.57 257.2 248.76 259.6"/>
        <polygon class="cls-17" points="237.97 256 231.97 258.4 224.78 256 230.78 253.6 237.97 256"/>
        <polygon class="cls-17" points="227.18 252.41 221.18 254.8 213.99 252.41 219.98 250.01 227.18 252.41"/>
        <polygon class="cls-17" points="236.77 264.4 230.78 266.8 223.58 264.4 229.58 262 236.77 264.4"/>
        <polygon class="cls-17" points="225.98 260.8 219.98 263.2 212.79 260.8 218.78 258.4 225.98 260.8"/>
        <polygon class="cls-17" points="259.56 254.8 253.56 257.2 236.77 251.21 242.77 248.81 259.56 254.8"/>
        <polygon class="cls-17" points="221.18 234.42 215.19 236.81 207.99 234.42 213.99 232.02 221.18 234.42"/>
        <polygon class="cls-17" points="247.56 242.81 241.57 245.21 218.78 238.01 225.98 235.62 247.56 242.81"/>
      </g>
      <path class="cls-10" d="M281.54,250.03s-17.41,11.19-50.99,21.14c-1.14.34-27.88-45.13-28.89-45.91-1.17-.91-74.83-29.58-74.97-28.9-.3,1.5,1.67,4.64,2.19,5.65,1.29,2.5,20.07,31.79,27.21,41.59.99,1.36,2.09,3.05,3.57,3.94,6.22,3.73,68.4,29.85,73.38,28.6,4.98-1.24,58.45-19.89,48.5-26.11h0Z"/>
      <path class="cls-17" d="M231.8,276.15c.22,0,.44-.06.65-.18.59-.36.77-1.12.41-1.71-.14-.22-13.89-22.71-31.1-49.77-.14-.22-.35-.39-.6-.49l-73.38-28.6c-.64-.25-1.36.07-1.61.71-.25.64.07,1.36.71,1.61l73,28.46c17.1,26.88,30.72,49.16,30.86,49.38.23.37.64.59,1.06.59Z"/>
    </g>
    <g>
      <path class="cls-14" d="M266.18,97.27s-28.47,12.27-36.26,30.06c-7.78,17.79-2.22,31.13-5.56,54.47-1.6,11.22-6.67,43.35-6.67,43.35,0,0,3.33,3.33,7.78,2.22,0,0,18.9-28.9,26.68-52.25,7.79-23.33,14.03-77.85,14.03-77.85h0Z"/>
      <path class="cls-30" d="M243.86,138.51l-.84,7.52c-5.54-1.05-14.17-.29-17.39.05.16-2.83.47-5.63,1.05-8.48,6.94-1.8,17.18.91,17.18.91h0Z"/>
      <path class="cls-30" d="M225.49,154.64c8.26-1.53,16.71-.46,16.71-.46l-.05,7.56c-5.6-.47-13.59.54-16.59.97,0-2.79-.04-5.47-.07-8.07Z"/>
      <path class="cls-23" d="M217.72,225.02h.02c6.71-2.37,7.74,2.35,7.74,2.35-4.45,1.11-7.78-2.22-7.78-2.22,0,0,.01-.05.02-.13h0Z"/>
      <path class="cls-9" d="M221.5,222.54s-10.72,9.03-10.72,10.37c0,1.89,4.02-1.34,4.02-1.34,0,0-4.61,6.93-2.68,8.03,1.51.86,4.9-6.87,4.9-6.87,0,0-3.56,9.55-2.23,9.55,2.68,0,5.01-8.92,5.01-8.92,0,0-.99,8.92.35,8.92,1.26,0,2.68-9.37,2.68-9.37,0,0,3.07,3.62,4.02,2.68,1.34-1.34-4.02-5.36-1.34-10.71,1.89-3.79-4.01-2.34-4.01-2.34h0Z"/>
      <path class="cls-14" d="M224.65,214.89c1.85.41,5.06,1.4,6.61,3.14-3.4,5.71-5.78,9.35-5.78,9.35,0,0-1.03-4.72-7.74-2.36h-.02c-.01.09-.02.14-.02.14,0,0,.78-4.42,1.82-10.46,1.69-.21,3.39-.2,5.13.19h0Z"/>
    </g>
    <g>
      <path class="cls-15" d="M355.82,144.41c-1.45-32.94-21.54-43.27-64.29-55.4,0,0-12.9.65-31.58,11.64-18.9,11.12-17.43,55.98-17.43,55.98-.2,7.47-2.58,68.52,3.09,80.35,0,0,48.07,18.15,81.56,10.83-.01,0,30.1-70.46,28.65-103.4h0Z"/>
      <path class="cls-14" d="M241.89,184.06c1.23,10.19,5.53,26.42,18.06,32.2,14.45,6.67,31.13-4.45,36.68-40.02,5.56-35.57,22.81-51.58,22.81-51.58l35.59,11.79c.4,2.5.67,5.14.8,7.96,1.45,32.94-28.66,103.4-28.66,103.4-33.49,7.31-81.56-10.83-81.56-10.83-3.45-7.18-3.92-32.46-3.72-52.92h0Z"/>
      <path class="cls-26" d="M246.59,115.98c.16-.59.77-.94,1.36-.79.59.16.95.77.79,1.36-.08.29-6.56,25.46-6.92,82.44-.74,1.46-1.49,2.89-2.24,4.3.06-60.33,6.93-87.02,7.01-87.31h0Z"/>
      <path class="cls-26" d="M243.03,224.47c.08.75.16,1.47.25,2.17,3.9,1.4,14.5,4.98,28.25,7.89,13.25,2.8,24.75,4.02,34.5,4.28,10.53.29,19.01-.53,25.46-1.64.27-.69.55-1.4.84-2.14-38.87,7.19-83.32-8.36-89.3-10.56h0Z"/>
    </g>
    <g>
      <g>
        <path class="cls-7" d="M269.06,241.83s-10.67,9.34-12,8c-1.33-1.33,2.67-4,2.67-4,0,0-6.52,3.65-9.34,2.67-1.57-.55,5.33-4,5.33-4,0,0-8.13,2.23-9.47.9-1.33-1.33,8.13-3.56,8.13-3.56,0,0-6.67,0-6.67-1.33s6.67-1.33,9.34-1.33c0,0-5.68-6.56,2.67-2.67,7.65,3.56,14.67-1.33,14.67-1.33l-5.33,6.65h0Z"/>
        <path class="cls-15" d="M315.2,97.1s31.07,9.46,41.34,27.95c10.56,19.02-4.68,63.41-26.56,84.54-9.38,9.06-20.01,23.34-61.14,34.46,0,0-4.45-4.45-3.33-8.89,0,0,32.24-12.23,37.8-68.92,1.2-12.26,8.89-35.57,16.48-42.97l-4.59-26.17h0Z"/>
      </g>
      <path class="cls-13" d="M353.35,172.38c-23.03-11.11-44.98-9.08-49.77-8.44.34-2.36.87-5.01,1.55-7.81,24.87-3.91,45.58,5.74,51.12,7.73-.85,2.84-1.81,5.69-2.9,8.52Z"/>
      <path class="cls-13" d="M358.25,155.98c-27.72-11.54-47.39-7.21-51.3-6.47.8-2.64,1.71-5.31,2.68-7.9,26.08-5.96,46.12,4.62,49.9,6.6-.29,2.52-.72,5.12-1.28,7.77Z"/>
    </g>
    <g>
      <path class="cls-22" d="M368.56,22.59c-22.26-14.52-34.9,31.42-50.72,34.29l-5.94.55c1.38-6.07.62-13.16-5.12-20.49-16.12-20.56-48.72-5.57-49.22,13.04-.5,18.6,16.2,19.55,16.2,19.55l23.43,9.06s9.55-8.12,13.1-16.29l4.69,1.28s5.87,18.33,26.34,14.78c20.48-3.55,18.86-26.08,35.14-11.38,0,0,14.36-29.87-7.9-44.39h0Z"/>
      <path class="cls-6" d="M369.02,37.56c-15.52-2.63-15.62,14.08-31.36,24.16-15.74,10.09-24.21-.41-24.21-.41l.97-4.12-2.52.23c1.38-6.07.62-13.16-5.12-20.49-4.13-5.27-9.35-8.2-14.83-9.34,5.57,2.89,10.01,7.97,8.04,15.54-3.3,12.62-23.52,6.87-23.52,6.87,2.16,8.57,15.95,21.65,19.77,24.91l2.06,2.76s8.85-7.22,11.99-15.39l4.69,1.28s5.87,18.33,26.34,14.78c20.48-3.55,18.86-26.08,35.14-11.38,0,0,.02-.04.05-.11,2.89-11.41,4.02-27.34-7.49-29.29h0Z"/>
      <g>
        <path class="cls-13" d="M307,68.24s6.24-8.68,5.07-20.4c0,0,10.96.2,8.1,12.12-2.58,10.74-13.17,8.28-13.17,8.28Z"/>
        <path class="cls-30" d="M310.99,59.4c-1.54,5.43-3.99,8.84-3.99,8.84,0,0,10.59,2.47,13.17-8.28.25-1.03.39-1.97.45-2.83-2.99,4.14-8.49,2.64-9.63,2.27h0Z"/>
      </g>
      <path class="cls-7" d="M268.52,59.09s2.91,24.65,14.56,21.14c11.64-3.51,15.42-13.23,15.42-13.23,0,0,9.13-.51,7.44-7.76-1.68-7.25-8.9-7.18-10.04-1.69,0,0-11.91,2.36-19.44-7.54,0,0-2.58,6.23-7.94,9.08h0Z"/>
      <polygon class="cls-7" points="298.85 93.98 298.61 64.52 283.9 71.47 282.18 97.32 298.85 93.98"/>
      <path class="cls-7" d="M281.82,114.6c-15.03-.41-14.25-12.85-13.08-18.61,13.81-6.52,22.79-6.98,22.79-6.98,8.31,2.36,15.76,4.65,22.39,7.05h0c-3.4,4.52-15.58,18.98-32.1,18.54h0Z"/>
      <path class="cls-9" d="M283.35,80.13l-.51,8.16c12.25-2.89,12.22-14.1,12.3-14.74.05-.42.1-.83-.1-1.13-2.36,2.79-6.1,5.96-11.69,7.71h0Z"/>
      <path class="cls-29" d="M276.04,71s5.07,1.22,8.27-2.45c.01,0-1.42,12.06-8.27,2.45Z"/>
      <path class="cls-12" d="M295.6,58.02s-.06,0-.1.02c-10.24,1.07-16.78-5.03-19.05-7.61-2.86,6.75-10.23,10.3-10.56,10.46-.39.18-.86.02-1.04-.37-.19-.39-.02-.86.37-1.04.08-.04,8.05-3.89,10.22-10.84l.48-1.53.91,1.32c.06.09,6.58,9.3,18.51,8.06.43-.04.82.27.86.7.04.39-.22.75-.6.83h0Z"/>
    </g>
  </g>
</svg>